<svg width="66" height="66" viewBox="0 0 66 66" fill="none" xmlns="http://www.w3.org/2000/svg">
<rect width="66" height="66" fill="#F5F5F5"/>
<g clip-path="url(#clip0_0_1)">
<rect width="1440" height="3785" transform="translate(-764 -1726)" fill="white"/>
<rect width="1440" height="624" transform="matrix(1 0 0 -1 -763 360)" fill="#F6F4F9"/>
<rect x="-29" y="-27" width="270" height="120" rx="9" fill="white"/>
<rect width="66" height="66" rx="33" fill="url(#paint0_linear_0_1)"/>
<mask id="path-4-inside-1_0_1" fill="white">
<rect x="18" y="31" width="17.1429" height="17.1429" rx="1"/>
</mask>
<rect x="18" y="31" width="17.1429" height="17.1429" rx="1" stroke="white" stroke-width="4" mask="url(#path-4-inside-1_0_1)"/>
<mask id="path-5-inside-2_0_1" fill="white">
<rect x="18" y="19" width="30" height="29.1429" rx="1"/>
</mask>
<rect x="18" y="19" width="30" height="29.1429" rx="1" stroke="white" stroke-width="4" mask="url(#path-5-inside-2_0_1)"/>
<line x1="35" y1="27" x2="43" y2="27" stroke="white" stroke-width="2"/>
<line x1="42" y1="34" x2="42" y2="26" stroke="white" stroke-width="2"/>
<path d="M42 27L35.7071 32.7071" stroke="white" stroke-width="2"/>
</g>
<defs>
<linearGradient id="paint0_linear_0_1" x1="11.0939" y1="-5.84751e-06" x2="67.6866" y2="16.1816" gradientUnits="userSpaceOnUse">
<stop stop-color="#3F0F72"/>
<stop offset="1" stop-color="#791281"/>
</linearGradient>
<clipPath id="clip0_0_1">
<rect width="1440" height="3785" fill="white" transform="translate(-764 -1726)"/>
</clipPath>
</defs>
</svg>
