<svg width="66" height="66" viewBox="0 0 66 66" fill="none" xmlns="http://www.w3.org/2000/svg">
<rect width="66" height="66" fill="#F5F5F5"/>
<g clip-path="url(#clip0_0_1)">
<rect width="1440" height="3785" transform="translate(-164 -1726)" fill="white"/>
<rect width="1440" height="624" transform="matrix(1 0 0 -1 -163 360)" fill="#F6F4F9"/>
<rect x="-29" y="-27" width="270" height="120" rx="9" fill="white"/>
<rect width="66" height="66" rx="33" fill="url(#paint0_linear_0_1)"/>
<mask id="path-4-inside-1_0_1" fill="white">
<path fill-rule="evenodd" clip-rule="evenodd" d="M30 15C30 14.4477 30.4477 14 31 14H36C36.5523 14 37 14.4477 37 15V18.7149C37 19.1641 37.301 19.5545 37.7262 19.6997C38.3469 19.9117 38.9477 20.1691 39.525 20.4682C39.9311 20.6785 40.4309 20.6194 40.7543 20.296L43.3996 17.6507C43.7901 17.2602 44.4233 17.2602 44.8138 17.6507L48.3493 21.1862C48.7399 21.5768 48.7399 22.2099 48.3493 22.6005L45.6471 25.3027C45.3276 25.6222 45.2654 26.1146 45.469 26.518C45.7547 27.0842 46.0041 27.6732 46.2141 28.2817C46.3596 28.7033 46.7483 29 47.1943 29H51C51.5523 29 52 29.4477 52 30V35C52 35.5523 51.5523 36 51 36H47.5007C47.0278 36 46.6233 36.3324 46.4998 36.7888C46.3072 37.5011 46.0616 38.1904 45.7677 38.8519C45.5921 39.2472 45.6633 39.7135 45.9692 40.0194L48.3492 42.3994C48.7397 42.7899 48.7397 43.4231 48.3492 43.8136L44.8137 47.3492C44.4231 47.7397 43.79 47.7397 43.3994 47.3492L41.3985 45.3482C41.0608 45.0105 40.5334 44.9623 40.1211 45.2034C39.365 45.6455 38.5637 46.0143 37.7262 46.3003C37.301 46.4455 37 46.8358 37 47.2851V50C37 50.5523 36.5523 51 36 51H31C30.4477 51 30 50.5523 30 50V47.2851C30 46.8358 29.699 46.4455 29.2738 46.3003C28.4363 46.0143 27.635 45.6455 26.879 45.2034C26.4667 44.9624 25.9393 45.0105 25.6016 45.3482L23.6006 47.3492C23.2101 47.7397 22.5769 47.7397 22.1864 47.3492L18.6508 43.8137C18.2603 43.4231 18.2603 42.79 18.6508 42.3994L21.0309 40.0194C21.3367 39.7136 21.408 39.2472 21.2324 38.852C20.9385 38.1905 20.6928 37.5011 20.5002 36.7888C20.3767 36.3324 19.9722 36 19.4993 36H16C15.4477 36 15 35.5523 15 35V30C15 29.4477 15.4477 29 16 29H19.8057C20.2517 29 20.6404 28.7033 20.7859 28.2817C20.9959 27.6732 21.2453 27.0842 21.5311 26.518C21.7346 26.1146 21.6724 25.6221 21.3529 25.3026L18.6507 22.6004C18.2602 22.2099 18.2602 21.5767 18.6507 21.1862L22.1862 17.6507C22.5768 17.2601 23.2099 17.2601 23.6005 17.6507L26.2457 20.296C26.5692 20.6194 27.069 20.6785 27.4751 20.4681C28.0523 20.1691 28.6531 19.9117 29.2738 19.6997C29.699 19.5545 30 19.1641 30 18.7149V15Z"/>
</mask>
<path d="M43.3996 17.6507L44.8138 19.0649L44.8138 19.0649L43.3996 17.6507ZM44.8138 17.6507L46.228 16.2365L46.228 16.2365L44.8138 17.6507ZM48.3493 21.1862L49.7635 19.772L49.7635 19.772L48.3493 21.1862ZM48.3493 22.6005L49.7635 24.0147L49.7635 24.0147L48.3493 22.6005ZM48.3492 43.8136L46.935 42.3994L46.935 42.3994L48.3492 43.8136ZM44.8137 47.3492L46.2279 48.7634L46.2279 48.7634L44.8137 47.3492ZM43.3994 47.3492L41.9852 48.7634L41.9852 48.7634L43.3994 47.3492ZM23.6006 47.3492L22.1864 45.935L22.1864 45.935L23.6006 47.3492ZM22.1864 47.3492L23.6006 45.935L23.6006 45.935L22.1864 47.3492ZM18.6508 43.8137L17.2366 45.2279L17.2366 45.2279L18.6508 43.8137ZM18.6508 42.3994L17.2366 40.9852L17.2366 40.9852L18.6508 42.3994ZM18.6507 22.6004L17.2365 24.0146L17.2365 24.0146L18.6507 22.6004ZM18.6507 21.1862L20.0649 22.6004L20.0649 22.6004L18.6507 21.1862ZM22.1862 17.6507L20.772 16.2365L20.772 16.2365L22.1862 17.6507ZM23.6005 17.6507L25.0147 16.2365L25.0147 16.2365L23.6005 17.6507ZM20.5002 36.7888L18.5696 37.311L20.5002 36.7888ZM26.879 45.2034L25.8694 46.9299L26.879 45.2034ZM25.6016 45.3482L24.1874 43.934L25.6016 45.3482ZM21.0309 40.0194L22.4451 41.4336L21.0309 40.0194ZM21.2324 38.852L23.0601 38.0399L21.2324 38.852ZM37.7262 46.3003L38.3726 48.193L37.7262 46.3003ZM40.7543 20.296L39.3401 18.8818L40.7543 20.296ZM29.2738 46.3003L28.6274 48.193L29.2738 46.3003ZM20.7859 28.2817L18.8953 27.6292L20.7859 28.2817ZM46.4998 36.7888L48.4304 37.311L46.4998 36.7888ZM41.3985 45.3482L42.8127 43.934L41.3985 45.3482ZM40.1211 45.2034L39.1115 43.4769L40.1211 45.2034ZM45.6471 25.3027L44.2329 23.8885L45.6471 25.3027ZM45.469 26.518L47.2545 25.617L45.469 26.518ZM37.7262 19.6997L37.0798 21.5924L37.7262 19.6997ZM31 12C29.3431 12 28 13.3431 28 15H32C32 15.5523 31.5523 16 31 16V12ZM36 12H31V16H36V12ZM39 15C39 13.3431 37.6569 12 36 12V16C35.4477 16 35 15.5523 35 15H39ZM39 18.7149V15H35V18.7149H39ZM37.0798 21.5924C37.6054 21.7719 38.1148 21.9901 38.605 22.244L40.4449 18.6923C39.7806 18.3481 39.0884 18.0515 38.3726 17.807L37.0798 21.5924ZM41.9854 16.2365L39.3401 18.8818L42.1685 21.7102L44.8138 19.0649L41.9854 16.2365ZM46.228 16.2365C45.0564 15.0649 43.1569 15.0649 41.9854 16.2365L44.8138 19.0649C44.4233 19.4555 43.7901 19.4554 43.3996 19.0649L46.228 16.2365ZM49.7635 19.772L46.228 16.2365L43.3996 19.0649L46.9351 22.6005L49.7635 19.772ZM49.7635 24.0147C50.9351 22.8431 50.9351 20.9436 49.7635 19.772L46.9351 22.6005C46.5446 22.2099 46.5446 21.5768 46.9351 21.1862L49.7635 24.0147ZM47.0613 26.7169L49.7635 24.0147L46.9351 21.1862L44.2329 23.8885L47.0613 26.7169ZM43.6834 27.419C43.9287 27.9052 44.143 28.4112 44.3235 28.9341L48.1047 27.6292C47.8652 26.9353 47.5806 26.2632 47.2545 25.617L43.6834 27.419ZM51 27H47.1943V31H51V27ZM54 30C54 28.3431 52.6569 27 51 27V31C50.4477 31 50 30.5523 50 30H54ZM54 35V30H50V35H54ZM51 38C52.6569 38 54 36.6569 54 35H50C50 34.4477 50.4477 34 51 34V38ZM47.5007 38H51V34H47.5007V38ZM44.5692 36.2667C44.4035 36.8793 44.1924 37.4717 43.9399 38.0399L47.5954 39.6639C47.9307 38.9092 48.2108 38.123 48.4304 37.311L44.5692 36.2667ZM49.7634 40.9852L47.3834 38.6052L44.5549 41.4336L46.935 43.8136L49.7634 40.9852ZM49.7634 45.2278C50.935 44.0563 50.935 42.1568 49.7634 40.9852L46.935 43.8136C46.5445 43.4231 46.5445 42.7899 46.935 42.3994L49.7634 45.2278ZM46.2279 48.7634L49.7634 45.2278L46.935 42.3994L43.3994 45.9349L46.2279 48.7634ZM41.9852 48.7634C43.1568 49.9349 45.0563 49.9349 46.2279 48.7634L43.3995 45.9349C43.79 45.5444 44.4231 45.5444 44.8137 45.9349L41.9852 48.7634ZM39.9843 46.7624L41.9852 48.7634L44.8137 45.9349L42.8127 43.934L39.9843 46.7624ZM39.1115 43.4769C38.4687 43.8528 37.7889 44.1654 37.0798 44.4076L38.3726 48.193C39.3385 47.8631 40.2613 47.4383 41.1307 46.9299L39.1115 43.4769ZM39 50V47.2851H35V50H39ZM36 53C37.6569 53 39 51.6569 39 50H35C35 49.4477 35.4477 49 36 49V53ZM31 53H36V49H31V53ZM28 50C28 51.6569 29.3431 53 31 53V49C31.5523 49 32 49.4477 32 50H28ZM28 47.2851V50H32V47.2851H28ZM29.9202 44.4076C29.2111 44.1655 28.5313 43.8528 27.8885 43.4769L25.8694 46.9299C26.7388 47.4383 27.6615 47.8631 28.6274 48.193L29.9202 44.4076ZM25.0148 48.7634L27.0158 46.7624L24.1874 43.934L22.1864 45.935L25.0148 48.7634ZM20.7722 48.7634C21.9437 49.935 23.8432 49.935 25.0148 48.7634L22.1864 45.935C22.5769 45.5445 23.2101 45.5445 23.6006 45.935L20.7722 48.7634ZM17.2366 45.2279L20.7722 48.7634L23.6006 45.935L20.0651 42.3994L17.2366 45.2279ZM17.2366 40.9852C16.0651 42.1568 16.0651 44.0563 17.2366 45.2279L20.0651 42.3995C20.4556 42.79 20.4556 43.4231 20.0651 43.8137L17.2366 40.9852ZM19.6167 38.6052L17.2366 40.9852L20.0651 43.8137L22.4451 41.4336L19.6167 38.6052ZM23.0601 38.0399C22.8076 37.4717 22.5965 36.8793 22.4308 36.2667L18.5696 37.311C18.7892 38.123 19.0693 38.9092 19.4046 39.664L23.0601 38.0399ZM16 38H19.4993V34H16V38ZM13 35C13 36.6569 14.3431 38 16 38V34C16.5523 34 17 34.4477 17 35H13ZM13 30V35H17V30H13ZM16 27C14.3431 27 13 28.3431 13 30H17C17 30.5523 16.5523 31 16 31V27ZM19.8057 27H16V31H19.8057V27ZM22.6765 28.9341C22.857 28.4111 23.0713 27.9051 23.3166 27.419L19.7455 25.6169C19.4194 26.2632 19.1348 26.9352 18.8953 27.6292L22.6765 28.9341ZM17.2365 24.0146L19.9387 26.7169L22.7672 23.8884L20.0649 21.1862L17.2365 24.0146ZM17.2365 19.772C16.0649 20.9436 16.0649 22.8431 17.2365 24.0146L20.0649 21.1862C20.4554 21.5767 20.4554 22.2099 20.0649 22.6004L17.2365 19.772ZM20.772 16.2365L17.2365 19.772L20.0649 22.6004L23.6005 19.0649L20.772 16.2365ZM25.0147 16.2365C23.8431 15.0649 21.9436 15.0649 20.772 16.2365L23.6005 19.0649C23.2099 19.4554 22.5768 19.4554 22.1862 19.0649L25.0147 16.2365ZM27.66 18.8817L25.0147 16.2365L22.1862 19.0649L24.8315 21.7102L27.66 18.8817ZM28.3951 22.244C28.8852 21.9901 29.3946 21.7719 29.9202 21.5924L28.6274 17.807C27.9116 18.0515 27.2194 18.3481 26.5551 18.6923L28.3951 22.244ZM28 15V18.7149H32V15H28ZM29.9202 21.5924C31.0898 21.1929 32 20.0865 32 18.7149H28C28 18.2418 28.3082 17.9161 28.6274 17.807L29.9202 21.5924ZM23.3166 27.419C23.8803 26.3018 23.7414 24.8627 22.7672 23.8884L19.9387 26.7169C19.6034 26.3816 19.5889 25.9273 19.7455 25.6169L23.3166 27.419ZM22.4308 36.2667C22.0893 35.0038 20.942 34 19.4993 34V38C19.0023 38 18.6642 37.6609 18.5696 37.311L22.4308 36.2667ZM27.8885 43.4769C26.7551 42.8142 25.2189 42.9025 24.1874 43.934L27.0158 46.7624C26.6597 47.1185 26.1783 47.1105 25.8694 46.9299L27.8885 43.4769ZM44.3235 28.9341C44.727 30.1033 45.8345 31 47.1943 31V27C47.6621 27 47.9922 27.3034 48.1047 27.6292L44.3235 28.9341ZM22.4451 41.4336C23.3772 40.5015 23.5474 39.1367 23.0601 38.0399L19.4046 39.664C19.2685 39.3577 19.2962 38.9256 19.6167 38.6052L22.4451 41.4336ZM24.8315 21.7102C25.8189 22.6975 27.2769 22.8233 28.3951 22.244L26.5551 18.6923C26.8611 18.5338 27.3194 18.5412 27.66 18.8817L24.8315 21.7102ZM37.0798 44.4076C35.9103 44.8071 35 45.9135 35 47.2851H39C39 47.7582 38.6918 48.084 38.3726 48.193L37.0798 44.4076ZM38.605 22.244C39.7232 22.8233 41.1812 22.6975 42.1685 21.7102L39.3401 18.8818C39.6806 18.5412 40.139 18.5338 40.4449 18.6923L38.605 22.244ZM32 47.2851C32 45.9135 31.0897 44.8071 29.9202 44.4076L28.6274 48.193C28.3082 48.084 28 47.7582 28 47.2851H32ZM19.8057 31C21.1655 31 22.273 30.1033 22.6765 28.9341L18.8953 27.6292C19.0078 27.3034 19.3379 27 19.8057 27V31ZM43.9399 38.0399C43.4526 39.1367 43.6229 40.5015 44.5549 41.4336L47.3834 38.6052C47.7038 38.9256 47.7315 39.3577 47.5954 39.6639L43.9399 38.0399ZM47.5007 34C46.058 34 44.9107 35.0038 44.5692 36.2667L48.4304 37.311C48.3358 37.6609 47.9977 38 47.5007 38V34ZM42.8127 43.934C41.7812 42.9024 40.245 42.8141 39.1115 43.4769L41.1307 46.9299C40.8218 47.1105 40.3404 47.1185 39.9843 46.7624L42.8127 43.934ZM44.2329 23.8885C43.2586 24.8627 43.1197 26.3019 43.6834 27.419L47.2545 25.617C47.4111 25.9274 47.3966 26.3816 47.0613 26.7169L44.2329 23.8885ZM35 18.7149C35 20.0865 35.9102 21.1929 37.0798 21.5924L38.3726 17.807C38.6918 17.9161 39 18.2418 39 18.7149H35Z" fill="white" mask="url(#path-4-inside-1_0_1)"/>
<circle cx="33.5" cy="32.5" r="6.5" stroke="white" stroke-width="2"/>
</g>
<defs>
<linearGradient id="paint0_linear_0_1" x1="11.0939" y1="-5.84751e-06" x2="67.6866" y2="16.1816" gradientUnits="userSpaceOnUse">
<stop stop-color="#3F0F72"/>
<stop offset="1" stop-color="#791281"/>
</linearGradient>
<clipPath id="clip0_0_1">
<rect width="1440" height="3785" fill="white" transform="translate(-164 -1726)"/>
</clipPath>
</defs>
</svg>
