<svg fill="none" height="66" viewBox="0 0 66 66" width="66" xmlns="http://www.w3.org/2000/svg" xmlns:xlink="http://www.w3.org/1999/xlink"><linearGradient id="a" gradientUnits="userSpaceOnUse" x1="11.0939" x2="67.6866" y1="-.000006" y2="16.1816"><stop offset="0" stop-color="#3f0f72"/><stop offset="1" stop-color="#791281"/></linearGradient><clipPath id="b"><path d="m-464-1878h1440v3785h-1440z"/></clipPath><mask id="c" fill="#fff"><path d="m20 20c0-1.1046.8954-2 2-2h22c1.1046 0 2 .8954 2 2v19.2146c0 1.1046-.8954 2-2 2h-5.531c-1.2123 0-2.3201.7294-2.6027 1.9083-.3816 1.5917-.6042 3.7792.6004 4.9317 2.0333 1.9454 2.0045 4.9805 0 6.84-1.9438 1.8032-4.9896 1.8032-6.9334 0-2.0045-1.8595-2.0333-4.8946 0-6.84 1.2046-1.1525.982-3.34.6004-4.9317-.2826-1.1789-1.3904-1.9083-2.6027-1.9083h-5.531c-1.1046 0-2-.8954-2-2z" fill="#fff"/></mask><path d="m0 0h66v66h-66z" fill="#f5f5f5"/><g clip-path="url(#b)"><path d="m0 0h1440v3785h-1440z" fill="#fff" transform="translate(-464 -1878)"/><path d="m0 0h1440v624h-1440z" fill="#f6f4f9" transform="matrix(1 0 0 -1 -463 208)"/><rect fill="#fff" height="120" rx="9" width="270" x="-29" y="-27"/><rect fill="url(#a)" height="66" rx="33" width="66"/><path d="m29.5333 54.8946 1.3602-1.4662zm6.9334 0-1.3602-1.4662zm-14.4667-34.8946h22v-4h-22zm22 0v19.2146h4v-19.2146zm-22 19.2146v-19.2146h-4v19.2146zm5.531 0h-5.531v4h5.531zm16.469 0h-5.531v4h5.531zm-8.8935 14.2138c-1.1767 1.0915-3.0363 1.0915-4.213 0l-2.7203 2.9325c2.7109 2.5148 6.9427 2.5148 9.6536 0zm-4.213 0c-1.1468-1.0639-1.1924-2.7664.0225-3.9287l-2.7653-2.8902c-2.8518 2.7285-2.8399 7.0961.0225 9.7514zm.0225-3.9287c1.1214-1.0729 1.449-2.4991 1.5095-3.6403.0616-1.1606-.1342-2.3156-.3469-3.2028l-3.8898.9325c.1689.7046.2752 1.4392.2423 2.0584-.0339.6386-.1972.8824-.2804.962zm3.0054-6.8431c-.2127.8872-.4085 2.0422-.3469 3.2028.0605 1.1412.3881 2.5674 1.5096 3.6403l2.7652-2.8902c-.0832-.0796-.2465-.3234-.2804-.962-.0329-.6192.0734-1.3538.2423-2.0584zm1.1627 6.8431c1.2148 1.1623 1.1692 2.8648.0224 3.9287l2.7203 2.9325c2.8624-2.6553 2.8743-7.0229.0225-9.7514zm3.3849-10.2851c-1.963 0-4.0112 1.2046-4.5476 3.442l3.8898.9325c.0203-.0845.0669-.1614.1666-.2324.1093-.0776.2802-.1421.4912-.1421zm-10.938 4c.211 0 .3819.0645.4912.1421.0997.071.1463.1479.1666.2324l3.8898-.9325c-.5364-2.2374-2.5846-3.442-4.5476-3.442zm-9.531-4c0 2.2091 1.7909 4 4 4v-4zm26 0v4c2.2091 0 4-1.7909 4-4zm0-19.2146h4c0-2.2091-1.7909-4-4-4zm-22-4c-2.2091 0-4 1.7909-4 4h4z" fill="#fff" mask="url(#c)"/><g stroke="#fff" stroke-width="2"><path d="m20 35.24h26"/><path d="m20 30.0945h26"/></g></g></svg>