<svg width="66" height="66" viewBox="0 0 66 66" fill="none" xmlns="http://www.w3.org/2000/svg">
<rect width="66" height="66" fill="#F5F5F5"/>
<g clip-path="url(#clip0_0_1)">
<rect width="1440" height="3785" transform="translate(-764 -1878)" fill="white"/>
<rect width="1440" height="624" transform="matrix(1 0 0 -1 -763 208)" fill="#F6F4F9"/>
<rect x="-29" y="-27" width="270" height="120" rx="9" fill="white"/>
<rect width="66" height="66" rx="33" fill="url(#paint0_linear_0_1)"/>
<path d="M18.0029 42.2156C17.6124 41.8251 17.6124 41.1919 18.0029 40.8014L40.0537 18.7506C40.2021 18.6022 40.3934 18.5043 40.6005 18.4706L40.4407 17.4875L40.6005 18.4706L48.5562 17.178C49.23 17.0685 49.8131 17.6516 49.7036 18.3254L50.6544 18.4799L49.7036 18.3254L48.411 26.2811C48.3773 26.4882 48.2794 26.6795 48.131 26.8279L26.0802 48.8787C25.6897 49.2692 25.0565 49.2692 24.666 48.8787L18.0029 42.2156Z" stroke="white" stroke-width="2"/>
<line x1="23.7071" y1="36.2928" x2="31.8427" y2="44.4284" stroke="white" stroke-width="2"/>
<path d="M38.2545 20.4916L39.6105 23.2035L42.6613 24.2204L43.3393 26.9323L46.3901 28.6272" stroke="white" stroke-width="2"/>
<path d="M26.8701 32.9689L18.836 24.8647C18.0608 24.0826 18.0635 22.821 18.8421 22.0424L24.0864 16.7981C24.8891 15.9955 26.198 16.021 26.9688 16.8542L34.665 25.174M34.9163 40.9739L41.5484 47.572C42.33 48.3496 43.5935 48.348 44.3731 47.5684L49.6382 42.3034C50.4319 41.5096 50.4171 40.2181 49.6053 39.4428L42.8751 33.0151" stroke="white" stroke-width="2"/>
<line x1="23.2597" y1="23.293" x2="20.1087" y2="26.444" stroke="white" stroke-width="2"/>
<line x1="43.4259" y1="43.4592" x2="40.2749" y2="46.6102" stroke="white" stroke-width="2"/>
<line x1="25.1503" y1="27.7045" x2="23.2597" y2="29.5951" stroke="white" stroke-width="2"/>
<line x1="39.0146" y1="41.5686" x2="37.1241" y2="43.4592" stroke="white" stroke-width="2"/>
</g>
<defs>
<linearGradient id="paint0_linear_0_1" x1="11.0939" y1="-5.84751e-06" x2="67.6866" y2="16.1816" gradientUnits="userSpaceOnUse">
<stop stop-color="#3F0F72"/>
<stop offset="1" stop-color="#791281"/>
</linearGradient>
<clipPath id="clip0_0_1">
<rect width="1440" height="3785" fill="white" transform="translate(-764 -1878)"/>
</clipPath>
</defs>
</svg>
