<svg width="66" height="66" viewBox="0 0 66 66" fill="none" xmlns="http://www.w3.org/2000/svg">
<rect width="66" height="66" fill="#F5F5F5"/>
<g clip-path="url(#clip0_0_1)">
<rect width="1440" height="3785" transform="translate(-1065 -1726)" fill="white"/>
<rect width="1440" height="624" transform="matrix(1 0 0 -1 -1064 360)" fill="#F6F4F9"/>
<rect x="-30" y="-27" width="270" height="120" rx="9" fill="white"/>
<rect width="66" height="66" rx="33" fill="url(#paint0_linear_0_1)"/>
<path d="M53.0095 29.9752C51.7632 29.2004 50.2368 29.1315 48.9267 29.7907L48.2219 30.1454V23.3355C48.2219 22.7493 47.7486 22.274 47.1661 22.274C44.5298 22.274 42.3169 24.1268 41.7412 26.606L36.0513 20.8794C35.6397 20.465 34.9717 20.4644 34.5592 20.8799C34.3911 21.0492 34.2344 21.2269 34.0896 21.4122C33.8549 21.0257 33.5739 20.6639 33.2495 20.334C32.8455 19.9017 32.1597 19.8839 31.7356 20.3108L24.7631 27.3284C22.754 29.3504 21.5476 31.9652 21.3049 34.7809H20.0547C19.4722 34.7809 19 35.2562 19 35.8425V44.9385C19 45.5247 19.4722 46 20.0547 46H31.3516C31.5153 46 31.6768 45.9616 31.8232 45.888L54.417 34.5179C54.7743 34.3381 55 33.9705 55 33.5684C55 32.0947 54.2561 30.7515 53.0095 29.9752ZM33.2269 28.6336C33.3952 28.4643 33.5519 28.2865 33.6967 28.1012C33.9368 28.4966 34.2253 28.8659 34.5591 29.2019L37.075 31.7342V35.1238L32.9906 36.7682L30.7636 32.2859C30.5314 31.8185 30.622 31.256 30.9891 30.8865C31.6134 30.2582 32.4206 29.4457 33.2269 28.6336ZM41.5937 38.5975L31.1025 43.877H21.1094V36.904H22.314C22.8965 36.904 23.3687 36.4288 23.3687 35.8425V35.842C23.3687 33.193 24.3936 30.7027 26.2546 28.8296L32.3751 22.6696C32.6725 23.216 32.8305 23.8321 32.8305 24.4725C32.8305 25.4773 32.4416 26.4218 31.7352 27.1326C30.9287 27.945 30.1216 28.7572 29.4976 29.3854C28.4874 30.402 28.238 31.9493 28.8769 33.2355L31.538 38.5914C31.7834 39.0851 32.3637 39.3072 32.873 39.1022L38.5214 36.8282C38.9219 36.667 39.1844 36.2767 39.1844 35.8426V31.2946C39.1844 31.013 39.0732 30.7431 38.8754 30.5439L36.0506 27.7008C35.3447 26.9903 34.9559 26.0457 34.9559 25.041C34.9559 24.4005 35.1139 23.7844 35.4114 23.2379L41.5938 29.4603V38.5975H41.5937ZM46.1125 31.8948C46.1125 33.9963 45.2202 35.9344 43.7031 37.273V27.8823C43.7031 26.3303 44.7164 25.012 46.1125 24.562V31.8948ZM47.4295 35.6607C47.8655 34.6717 48.1267 33.6128 48.2003 32.5299L49.8699 31.6897C50.5217 31.3617 51.281 31.396 51.9003 31.7811C52.342 32.0562 52.657 32.4744 52.8015 32.9573L47.4295 35.6607Z" fill="white"/>
</g>
<defs>
<linearGradient id="paint0_linear_0_1" x1="11.0939" y1="-5.84751e-06" x2="67.6866" y2="16.1816" gradientUnits="userSpaceOnUse">
<stop stop-color="#3F0F72"/>
<stop offset="1" stop-color="#791281"/>
</linearGradient>
<clipPath id="clip0_0_1">
<rect width="1440" height="3785" fill="white" transform="translate(-1065 -1726)"/>
</clipPath>
</defs>
</svg>
