<svg fill="none" height="66" viewBox="0 0 66 66" width="66" xmlns="http://www.w3.org/2000/svg" xmlns:xlink="http://www.w3.org/1999/xlink"><linearGradient id="a" gradientUnits="userSpaceOnUse" x1="11.0939" x2="67.6866" y1="-.000006" y2="16.1816"><stop offset="0" stop-color="#3f0f72"/><stop offset="1" stop-color="#791281"/></linearGradient><rect fill="url(#a)" height="66" rx="33" width="66"/><path d="m29.9667 23.1139h2.9482v3.9309h2.3027c3.7152 0 7.4077-1.4415 10.1849-4.2188l.6949-.6948-.6948-.6949c-2.627-2.6271-6.2574-4.2188-10.185-4.2188h-2.3027v3.9309h-2.9482v-1.9654h-11.7927v5.8964h11.7927zm4.9137-3.9309c.1992.0338 4.4749-.3713 8.3792 2.9482-2.2444 1.9082-5.0632 2.9482-8.0419 2.9482h-.3373zm-10.81 3.9309h-3.9309v-1.9655h3.9309zm3.9309 0h-1.9655v-1.9655h1.9655z" fill="#fff"/><g stroke="#fff" stroke-width="2"><path d="m31 33h10v6h-10z"/><path d="m18 45h12v5h-12z"/><path d="m30 45h11v5h-11z"/><path d="m26 40h11v5h-11z"/><path d="m37 40h10v5h-10z"/></g></svg>