<svg fill="none" height="66" viewBox="0 0 66 66" width="66" xmlns="http://www.w3.org/2000/svg" xmlns:xlink="http://www.w3.org/1999/xlink"><linearGradient id="a" gradientUnits="userSpaceOnUse" x1="11.0939" x2="67.6866" y1="-.000006" y2="16.1816"><stop offset="0" stop-color="#3f0f72"/><stop offset="1" stop-color="#791281"/></linearGradient><clipPath id="b"><path d="m-464-1726h1440v3785h-1440z"/></clipPath><path d="m0 0h66v66h-66z" fill="#f5f5f5"/><g clip-path="url(#b)"><path d="m0 0h1440v3785h-1440z" fill="#fff" transform="translate(-464 -1726)"/><path d="m0 0h1440v624h-1440z" fill="#f6f4f9" transform="matrix(1 0 0 -1 -463 360)"/><rect fill="#fff" height="120" rx="9" width="270" x="-29" y="-27"/><rect fill="url(#a)" height="66" rx="33" width="66"/><g stroke="#fff" stroke-width="2"><path d="m36.8 15.9999h-13.8c-.5523 0-1 .4478-1 1v30c0 .5523.4477 1 1 1h21.2c.5523 0 1-.4477 1-1v-23"/><path d="m43.5079 23h-5.7079v-5.4597z"/><path d="m26 23.8h7.2"/><path d="m26 28.5999h15.2"/><path d="m26 33.4h15.2"/><path d="m26 38.1999h15.2"/><path d="m26 43h15.2"/></g></g></svg>